<?xml version="1.0" standalone="no"?>
<!DOCTYPE svg PUBLIC "-//W3C//DTD SVG 20010904//EN"
 "http://www.w3.org/TR/2001/REC-SVG-20010904/DTD/svg10.dtd">
<svg version="1.0" xmlns="http://www.w3.org/2000/svg"
 width="150.000000pt" height="150.000000pt" viewBox="0 0 150.000000 150.000000"
 preserveAspectRatio="xMidYMid meet">
<metadata>
Created by potrace 1.14, written by Peter Selinger 2001-2017
</metadata>
<g transform="translate(0.000000,150.000000) scale(0.100000,-0.100000)"
fill="#000000" stroke="none">
<path d="M722 1480 c-19 -10 -41 -25 -51 -34 -10 -9 -20 -14 -23 -11 -3 3 -11
-1 -18 -10 -7 -8 -16 -15 -20 -15 -5 0 -49 -25 -98 -55 -50 -30 -95 -55 -101
-55 -6 0 -11 -4 -11 -10 0 -5 -7 -10 -16 -10 -9 0 -12 -5 -8 -12 5 -7 2 -9 -9
-5 -8 3 -21 -1 -27 -9 -7 -8 -18 -14 -25 -14 -7 0 -18 -7 -25 -15 -7 -8 -16
-13 -20 -10 -5 3 -10 1 -12 -4 -1 -4 -32 -24 -68 -44 -36 -19 -68 -41 -71 -49
-3 -7 -11 -24 -18 -37 -8 -14 -8 -21 -2 -16 15 9 14 -8 -1 -24 -7 -8 -8 -11
-2 -8 5 3 15 -7 21 -24 7 -18 8 -29 2 -29 -6 0 -7 -4 -4 -10 10 -16 15 -50 7
-50 -9 0 -9 -67 0 -76 4 -4 4 -14 -1 -23 -4 -9 -7 -87 -7 -174 1 -86 -3 -157
-7 -157 -5 0 -5 -4 -2 -10 3 -5 1 -10 -5 -10 -5 0 -9 -13 -8 -30 1 -16 6 -30
11 -30 5 0 4 -7 -3 -15 -10 -12 -9 -15 6 -16 11 0 33 -9 49 -20 17 -11 38 -22
48 -25 9 -4 17 -10 17 -15 0 -5 9 -9 21 -9 11 0 18 -4 15 -9 -3 -5 3 -11 14
-14 13 -3 18 -1 13 6 -3 6 9 -1 29 -16 19 -15 40 -27 46 -27 7 0 12 -4 12 -10
0 -5 9 -10 19 -10 11 0 21 -4 23 -9 2 -5 10 -11 18 -13 8 -2 17 -5 20 -8 5 -6
48 -32 117 -71 17 -10 34 -15 37 -12 3 4 6 1 6 -5 0 -7 17 -20 38 -30 20 -9
39 -19 42 -22 20 -21 59 -37 70 -30 8 5 17 7 21 4 4 -2 10 3 13 12 3 8 10 12
16 9 5 -3 10 -2 10 3 0 5 17 18 38 27 20 10 49 26 63 36 14 10 31 19 39 21 7
2 22 11 32 21 10 9 25 17 33 17 8 0 15 5 15 10 0 6 9 10 19 10 10 0 22 7 25
16 3 8 10 12 16 9 5 -3 10 -1 10 5 0 6 5 8 10 5 6 -3 10 -2 10 3 0 5 21 20 48
33 26 13 65 36 87 51 22 14 43 24 47 22 5 -3 8 0 8 5 0 6 5 11 11 11 7 0 18 8
26 18 8 9 12 11 8 5 -4 -9 -1 -11 9 -7 9 3 16 10 16 16 0 5 5 6 10 3 6 -3 10
-1 10 4 0 6 -5 11 -11 11 -8 0 -8 5 1 15 10 12 10 15 -1 15 -9 0 -10 3 -4 8
13 9 18 35 5 27 -14 -9 -32 4 -23 17 10 17 10 78 0 78 -4 0 -5 6 0 13 12 19
13 40 2 53 -7 8 -6 14 1 19 6 3 8 11 5 16 -6 9 -7 100 -1 162 1 21 -1 40 -6
43 -4 3 -4 13 2 23 6 11 6 30 0 50 -5 17 -5 31 0 31 4 0 6 8 3 19 -2 10 3 25
12 35 9 9 12 16 7 16 -5 0 -9 7 -9 15 0 8 5 15 11 15 6 0 4 5 -4 10 -13 9 -13
11 0 20 13 8 13 10 -2 10 -9 0 -18 4 -20 8 -3 8 -72 50 -178 110 -25 14 -62
36 -82 49 -21 12 -44 23 -52 23 -7 0 -19 6 -25 14 -14 16 -166 106 -181 106
-5 0 -10 5 -10 10 0 6 -6 10 -13 10 -7 0 -23 9 -35 20 -12 12 -22 18 -22 14 0
-3 -6 -2 -12 4 -9 7 -23 4 -46 -8z"/>
</g>
</svg>
